
<svg xmlns="http://www.w3.org/2000/svg" version="1.1" xmlns:xlink="http://www.w3.org/1999/xlink" preserveAspectRatio="none" x="0px" y="0px" width="1000px" height="1000px" viewBox="0 0 1000 1000">
<defs>
<g id="Layer0_0_FILL">
<path fill="#214B8D" stroke="none" d="
M 966.35 283.05
L 727.35 33.85 33.85 33.85 33.85 966.35 966.35 966.35 966.35 283.05
M 803.8 342.5
L 659.8 342.5 659.8 192.25 803.8 342.5
M 678 696.95
L 678 498.8 614.75 498.8 614.75 387.4 482.95 387.4 482.95 315.85 336.85 315.85 336.85 445.45 412.05 445.45 463.15 498.8 463.15 563.75 336.85 563.75 336.85 696.95 401.85 696.95 401.85 808.35 138.1 808.35 138.1 696.95 201.95 696.95 201.95 315.85 138.1 315.85 138.1 192.25 614.75 192.25 614.75 387.4 803.8 387.4 803.8 696.95 862.35 696.95 862.35 808.35 614.75 808.35 614.75 696.95 678 696.95 Z"/>

<path fill="#FFFFFF" stroke="none" d="
M 482.95 315.85
L 482.95 387.4 614.75 387.4 614.75 192.25 138.1 192.25 138.1 315.85 201.95 315.85 201.95 696.95 138.1 696.95 138.1 808.35 401.85 808.35 401.85 696.95 336.85 696.95 336.85 563.75 463.15 563.75 463.15 498.8 412.05 445.45 336.85 445.45 336.85 315.85 482.95 315.85
M 678 498.8
L 678 696.95 614.75 696.95 614.75 808.35 862.35 808.35 862.35 696.95 803.8 696.95 803.8 387.4 614.75 387.4 614.75 498.8 678 498.8
M 659.8 342.5
L 803.8 342.5 659.8 192.25 659.8 342.5 Z"/>
</g>
</defs>

<g transform="matrix( 1, 0, 0, 1, 0,0) ">
<use xlink:href="#Layer0_0_FILL"/>
</g>
</svg>
