
<svg xmlns="http://www.w3.org/2000/svg" version="1.1" xmlns:xlink="http://www.w3.org/1999/xlink" preserveAspectRatio="none" x="0px" y="0px" width="1000px" height="167px" viewBox="0 0 1000 167">
<defs>
<g id="Layer1_0_FILL">
<path fill="#ffffff" stroke="none" d="
M 424.2 479.7
Q 416 482.4 408.5 487.55
L 415.55 501.75
Q 420.4 499.15 425.65 497.85 430.85 496.45 437.7 496.45 441 496.45 443.8 497.1 446.6 497.7 448.55 499.1 450.55 500.4 451.65 502.55 452.75 504.6 452.75 507.45
L 452.75 509.8
Q 449.05 509 444.8 508.45 440.5 507.9 435.3 507.9 428.2 507.9 422.7 509.7 417.15 511.45 413.35 514.7 409.55 517.85 407.55 522.3 405.65 526.45 405.5 531.4
L 405.5 532.7
Q 405.65 537.55 407.5 541.7 409.45 546.1 413.2 549.4 416.85 552.6 422.3 554.5 427.6 556.35 434.45 556.35 437.15 556.35 439.4 556.05 441.7 555.65 443.8 555 445.9 554.3 448.05 553.2 450.15 552 452.75 550.4
L 452.75 554.5 484.35 554.5 484.35 534.45 474.15 534.45 474.15 506.85
Q 474.15 498.65 471.75 492.95 469.25 487.25 464.95 483.75 460.65 480.15 454.65 478.6 448.55 477 441.45 477 432.3 477 424.2 479.7
M 452.75 523.6
L 452.75 533.3
Q 449.75 535.7 445.5 537.35 441.25 539.05 436.05 539.05 431.05 539.05 428.65 536.8 426.15 534.5 426.15 531.15 426.15 529.3 426.95 527.95 427.7 526.55 429 525.6 430.25 524.65 431.85 524.15 433.5 523.6 435.15 523.6
L 452.75 523.6
M 537.85 479.5
Q 531.9 481.6 527.15 485.35
L 527.15 478.7 492.6 478.7 492.6 498.75 503.6 498.75 503.6 534.45 492.45 534.45 492.45 554.5 539.6 554.5 539.6 534.45 527.3 534.45 527.3 505.25
Q 530.95 500.65 534.85 498.95 538.7 497.25 542.5 497.25 548.1 497.25 551.45 500.95 554.8 504.5 554.8 510.9
L 554.8 554.5 589.45 554.5 589.45 534.45 578.65 534.45 578.65 507.3
Q 578.65 492.6 571.3 484.95 567.6 481.15 562.35 479.25 557.05 477.3 550.2 477.3 543.7 477.3 537.85 479.5
M 311.55 534.45
L 300.4 534.45 300.4 554.5 347.55 554.5 347.55 534.45 335.25 534.45 335.25 505.25
Q 338.9 500.65 342.8 498.95 345.95 497.55 349.1 497.3 349.8 497.25 350.45 497.25 356.05 497.25 359.4 500.95 362.75 504.5 362.75 510.9
L 362.75 554.5 397.4 554.5 397.4 534.45 386.6 534.45 386.6 507.3
Q 386.6 492.6 379.25 484.95 371.85 477.3 358.15 477.3 353.45 477.3 349.1 478.45 347.45 478.9 345.8 479.5 339.85 481.6 335.1 485.35
L 335.1 478.7 300.55 478.7 300.55 498.75 311.55 498.75 311.55 534.45
M 255.8 470.6
L 281.75 470.6 255.8 443.55 255.8 470.6
M 247.7 478.7
L 247.7 443.55 161.85 443.55 161.85 465.8 173.35 465.8 173.35 534.45 161.85 534.45 161.85 554.5 209.35 554.5 209.35 534.45 197.65 534.45 197.65 510.45 220.4 510.45 220.4 498.75 211.2 489.15 197.65 489.15 197.65 465.8 223.95 465.8 223.95 478.7 247.7 478.7
M 281.75 478.7
L 247.7 478.7 247.7 498.75 259.1 498.75 259.1 534.45 247.7 534.45 247.7 554.5 292.3 554.5 292.3 534.45 281.75 534.45 281.75 478.7
M 660.6 482.85
Q 655.4 479.5 649.6 477.8 643.85 476.1 637.7 476.4 629.05 476.1 621.7 479.1 614.35 482.1 609 487.55 603.65 492.85 600.65 500.1 597.75 506.85 597.55 514.65
L 597.55 516.75
Q 597.75 524.65 600.55 531.6 603.5 539 608.75 544.45 614.05 549.95 621.35 553.2 628.7 556.35 637.4 556.35 645.95 556.35 652.7 553.75 659.35 551.2 664.25 547.35 669.1 543.4 672.15 538.6 675.15 533.85 676.4 529.45
L 656.25 523.9
Q 655.4 525.9 653.85 528.15 652.25 530.35 650.05 532.2 647.85 533.95 645.05 535.1 642.2 536.2 638.8 536.5 634.7 536.2 631.25 534.75 627.7 533.3 625.25 530.7 622.65 528.1 621.2 524.5 619.75 520.9 619.75 516.9 619.75 512.35 621.15 508.75 622.55 505.1 625.1 502.45 627.6 499.85 631.1 498.35 634.55 496.9 638.8 497.2 644.05 496.9 647.9 498.95 651.8 500.95 654.95 504.9
L 675.15 504.9 675.15 482.85 660.6 482.85
M 749.8 486.6
Q 745.05 481.3 738.15 478.4 731.2 475.4 722.25 475.4 713.35 475.4 706 478.55 698.7 481.7 693.45 487.15 688.15 492.6 685.3 499.9 682.4 507.2 682.4 515.55 682.4 523.9 685.15 531.35 687.85 538.85 693.15 544.4 698.35 549.95 706 553.25 713.7 556.5 723.6 556.5 728.85 556.5 732.8 555.95 736.75 555.4 740.3 554.2 743.8 553.05 747.3 551.3 750.75 549.45 754.9 546.9
L 746.85 531.9
Q 744.15 532.9 741.5 533.85 738.9 534.75 736.1 535.45 733.3 536.15 730.4 536.55 727.4 536.95 724.1 536.95 720.8 536.95 717.6 536.15 714.35 535.25 711.75 533.55 709.1 531.9 707.2 529.4 705.2 526.9 704.4 523.6
L 704.2 521.35 760.05 521.35
Q 760.2 519.45 760.2 517.7 760.1 515.85 759.9 514.05 759.65 505.9 757.1 498.9 754.55 491.8 749.8 486.6
M 714.75 494.7
Q 717.6 493.7 721.7 493.7 725.55 493.7 728.2 494.7 730.75 495.65 732.45 497.35 734.15 499 735.1 501.2 736.05 503.4 736.55 505.9
L 704.85 505.9
Q 705.5 503.5 706.7 501.3 707.85 499.1 709.85 497.4 711.8 495.65 714.75 494.7
M 820.85 479.05
Q 818.65 477.8 815.8 476.9 812.9 476.05 809.35 475.55 805.75 474.95 801.15 474.95 794.4 474.95 788.55 476.7 782.6 478.45 778.25 481.7 773.85 484.8 771.3 489.35 768.7 493.85 768.7 499.3 768.7 508.7 775.45 514.7 782.2 520.6 795.45 523.15
L 809.5 526.2
Q 813.2 527.05 814.7 528.6 816.15 530.05 816.15 532.2 816.15 534.9 813.15 536.65 810.15 538.35 803.55 538.35 800.7 538.35 798.15 537.8 795.6 537.25 793.6 536.15 791.55 535.05 790.3 533.5 789.05 531.9 789 529.75
L 789 529.3 768.3 529.3 768.3 549.65 781.5 549.65
Q 783.3 551.15 785.4 552.4 787.45 553.55 790.15 554.45 792.8 555.3 796.15 555.8 799.45 556.35 803.55 556.35 809.85 556.35 816.05 554.7 822.2 553.05 827.2 549.8 832.1 546.5 835.15 541.6 838.15 536.7 838.15 530.2 838.15 526.05 836.85 522.45 835.45 518.85 832.4 515.95 829.3 513 824.25 510.8 819.2 508.6 811.75 507.15
L 798 504.45
Q 795.95 504.05 794.7 503.5 793.4 502.85 792.65 502.1 791.9 501.35 791.7 500.55 791.4 499.75 791.4 498.9 791.4 497.1 792.45 496 793.4 494.85 794.9 494.2 796.4 493.55 798.15 493.3 799.9 493 801.45 493 805.45 493 808.7 493.75 811.8 494.5 814 495.75 816.2 496.9 817.4 498.5 818.5 500.1 818.5 501.9
L 837.35 501.9 837.35 481.55 824.65 481.55
Q 822.95 480.2 820.85 479.05 Z"/>
</g>
</defs>

<g transform="matrix( 1.4786376953125, 0, 0, 1.4786376953125, -239.3,-655.85) ">
<use xlink:href="#Layer1_0_FILL"/>
</g>
</svg>
