
<svg xmlns="http://www.w3.org/2000/svg" version="1.1" xmlns:xlink="http://www.w3.org/1999/xlink" preserveAspectRatio="none" x="0px" y="0px" width="1000px" height="1000px" viewBox="0 0 1000 1000">
<defs>
<g id="Layer0_0_FILL">
<path fill="#214B8D" stroke="none" d="
M 1000.05 267.3
L 743.75 0.05 0.05 0.05 0.05 1000.05 1000.05 1000.05 1000.05 267.3
M 671.3 169.9
L 825.75 331.05 671.3 331.05 671.3 169.9
M 825.75 711.15
L 888.55 711.15 888.55 830.6 623 830.6 623 711.15 690.85 711.15 690.85 498.65 623 498.65 623 379.2 481.65 379.2 481.65 302.45 325 302.45 325 441.45 405.65 441.45 460.45 498.65 460.45 568.3 325 568.3 325 711.15 394.7 711.15 394.7 830.6 111.85 830.6 111.85 711.15 180.3 711.15 180.3 302.45 111.85 302.45 111.85 169.9 623 169.9 623 379.2 825.75 379.2 825.75 711.15 Z"/>
</g>
</defs>

<g transform="matrix( 1, 0, 0, 1, 0,0) ">
<use xlink:href="#Layer0_0_FILL"/>
</g>
</svg>
